<svg width="20" height="15" viewBox="0 0 20 15" fill="none" xmlns="http://www.w3.org/2000/svg" class="fill-current">
<path fill-rule="evenodd" clip-rule="evenodd" d="M18.4978 10.7111L19.9378 4.47111C20.0025 4.18738 19.8887 3.89155 19.6483 3.72586C19.4087 3.56017 19.0923 3.55875 18.8498 3.71946L15.1328 6.19697L10.5611 0.31893C10.421 0.138308 10.2041 0.034486 9.97368 0.0444416C9.74542 0.0529749 9.53493 0.171019 9.40764 0.361597L5.50933 6.20906L1.10826 3.69386C0.863638 3.55378 0.558572 3.57155 0.331016 3.74009C0.104172 3.90862 -0.00107293 4.19591 0.062216 4.47111L1.50222 10.7111H18.4978ZM17.8044 13.7156L18.1692 12.1333H1.83075L2.19555 13.7156C2.27022 14.0384 2.5575 14.2667 2.88888 14.2667H17.1111C17.4425 14.2667 17.7298 14.0384 17.8044 13.7156Z" />
</svg>
