<svg width="30" height="30" viewBox="0 0 30 30" fill="none" xmlns="http://www.w3.org/2000/svg">
<g clip-path="url(#clip0_425:150)">
<path d="M29.8821 14.5607L28.108 11.4876V7.93957C28.108 7.62557 27.9405 7.33535 27.6685 7.17838L24.5955 5.4044L22.8216 2.33139C22.6645 2.05945 22.3744 1.89193 22.0604 1.89193H18.5123L15.4392 0.117832C15.1673 -0.0390816 14.8323 -0.0391402 14.5603 0.117832L11.4873 1.89188H7.93922C7.62522 1.89188 7.33501 2.05939 7.17803 2.33139L5.40411 5.4044L2.33104 7.17838C2.05905 7.33535 1.89153 7.62551 1.89153 7.93957V11.4876L0.117485 14.5607C-0.0394873 14.8327 -0.0394873 15.1676 0.117485 15.4395L1.89147 18.5126V22.0607C1.89147 22.3747 2.05899 22.6649 2.33098 22.8219L5.40405 24.5958L7.17803 27.6689C7.33501 27.9408 7.62516 28.1084 7.93922 28.1084H11.4873L14.5604 29.8824C14.6963 29.9609 14.8481 30.0001 14.9998 30.0001C15.1516 30.0001 15.3033 29.9609 15.4392 29.8824L18.5123 28.1084H22.0603C22.3743 28.1084 22.6645 27.9408 22.8215 27.6689L24.5954 24.5959L27.6684 22.8219C27.9404 22.6649 28.108 22.3748 28.108 22.0607V18.5127L29.882 15.4396C30.039 15.1676 30.039 14.8327 29.8821 14.5607ZM23.8212 14.6577L22.7752 19.3651C22.492 20.6383 21.3833 21.5275 20.0791 21.5275H8.40991C7.92452 21.5275 7.531 21.1339 7.531 20.6486V13.1173C7.531 12.6319 7.92452 12.2384 8.40991 12.2384H11.951C12.7133 11.7833 13.1794 10.9695 13.1794 10.0709V7.46889C13.1794 6.9835 13.573 6.58998 14.0583 6.58998H15.4705C17.2584 6.58998 18.7029 8.03672 18.7029 9.82242V11.297H21.1255C21.9675 11.297 22.7527 11.6737 23.2797 12.3305C23.8063 12.9876 24.0036 13.8357 23.8212 14.6577Z" fill="white"/>
<path d="M21.1257 13.0547H17.8242C17.3388 13.0547 16.9453 12.6612 16.9453 12.1758V9.82225C16.9453 9.00117 16.2793 8.34762 15.4707 8.34762H14.9375V10.0707C14.9375 11.5144 14.2284 12.8293 13.0547 13.6198V19.7695H20.0794C20.5535 19.7695 20.9566 19.4463 21.0595 18.9834L22.1055 14.2764C22.1718 13.9775 22.1 13.6689 21.9086 13.43C21.7172 13.1916 21.4318 13.0547 21.1257 13.0547Z" fill="white"/>
<path d="M9.289 13.9961H11.2968V19.7695H9.289V13.9961Z" fill="white"/>
</g>
<defs>
<clipPath id="clip0_425:150">
<rect width="30" height="30" fill="white"/>
</clipPath>
</defs>
</svg>
