<svg width="17" height="17" viewBox="0 0 17 17" fill="none" xmlns="http://www.w3.org/2000/svg">
<path d="M16.9415 6.5087C16.8051 6.04851 16.4104 5.71188 15.9345 5.64982L11.4173 5.02582L9.62969 0.754453C9.36871 0.129244 8.65028 -0.165987 8.02507 0.0949943C7.72703 0.219439 7.49006 0.456377 7.36565 0.754418L5.57808 5.02579L1.06088 5.64979C0.387837 5.7435 -0.0818075 6.36505 0.0119081 7.03806C0.0521685 7.32728 0.193969 7.59274 0.411987 7.787L3.81537 10.8219L3.11612 15.5844C3.04036 16.068 3.26247 16.5498 3.67941 16.8062C4.09047 17.0691 4.61923 17.0593 5.02023 16.7813L8.49767 14.4165L11.9751 16.7838C12.5362 17.1646 13.2999 17.0185 13.6807 16.4573C13.8538 16.2023 13.9247 15.8916 13.8793 15.5868L13.18 10.8226L16.5834 7.78764C16.9448 7.4694 17.0851 6.96831 16.9415 6.5087Z" fill="white"/>
</svg>
