<svg width="18" height="18" viewBox="0 0 18 18" fill="none" xmlns="http://www.w3.org/2000/svg" class="fill-current">
<path fill-rule="evenodd" clip-rule="evenodd" d="M12.6926 11.3C13.499 10.6067 14.3245 9.85705 15.0903 9.09123C18.227 5.95453 17.9495 0.838098 17.9362 0.622011C17.9159 0.293402 17.654 0.0314891 17.3254 0.0112282C17.3081 0.0100978 17.1485 0.000793457 16.8751 0.000793457C15.3228 0.000793457 11.4339 0.279054 8.85599 2.85697C8.09016 3.62279 7.34042 4.44836 6.64712 5.25479C6.20773 5.16349 5.54912 5.05888 4.83677 5.05888C4.26068 5.05888 3.7346 5.12775 3.27295 5.26349C1.5719 5.76384 0.34912 6.87523 0.297902 6.92227C0.167033 7.04253 0.0908587 7.21097 0.0871196 7.38871C0.0833805 7.56636 0.152337 7.73792 0.277989 7.86358L2.15208 9.73766C2.65703 9.52836 3.18182 9.35375 3.72147 9.21645C4.54138 9.00775 5.37173 8.90192 6.18955 8.90192C6.23164 8.90192 6.27321 8.90218 6.31425 8.90271C7.82521 8.92279 9.02442 10.1221 9.04451 11.633C9.05599 12.4906 8.95042 13.363 8.73086 14.2257C8.59355 14.7652 8.41886 15.2901 8.20955 15.7951L10.0836 17.6692C10.206 17.7917 10.372 17.8603 10.5448 17.8603L10.5585 17.8602C10.7362 17.8564 10.9047 17.7803 11.0249 17.6494C11.072 17.5982 12.1835 16.3754 12.6837 14.6744C13.0437 13.4504 12.8489 12.0527 12.6926 11.3ZM7.46677 13.9039C7.65816 13.152 7.75016 12.3938 7.74025 11.6503C7.72982 10.8649 7.08234 10.2174 6.29695 10.207C6.26173 10.2065 6.2259 10.2063 6.18964 10.2063C5.48025 10.2063 4.75808 10.2985 4.04329 10.4804C3.26877 10.6776 2.52947 10.9601 1.84608 11.32C1.64234 11.4274 1.50547 11.6204 1.47077 11.8498C1.43538 12.083 1.51068 12.3123 1.67729 12.4789L5.46834 16.2699C5.60695 16.4085 5.7906 16.4849 5.98538 16.4849C6.26068 16.4849 6.50051 16.3414 6.62712 16.1011C6.98712 15.4176 7.26964 14.6784 7.46677 13.9039ZM14.6249 7.08227C15.127 6.5801 15.4036 5.91245 15.4036 5.20236C15.4036 4.49218 15.127 3.82453 14.6249 3.32236C14.1227 2.82018 13.455 2.54366 12.7449 2.54366C12.0348 2.54366 11.3671 2.82018 10.8649 3.32236C10.3628 3.82453 10.0863 4.49218 10.0863 5.20236C10.0863 5.91253 10.3628 6.5801 10.8649 7.08227C11.3671 7.58445 12.0348 7.86097 12.7449 7.86097C13.455 7.86097 14.1227 7.58445 14.6249 7.08227ZM11.7873 4.24471C12.0431 3.98888 12.3832 3.84801 12.7449 3.84801C13.1066 3.84801 13.4467 3.98888 13.7026 4.24471C13.9584 4.50053 14.0993 4.84062 14.0993 5.20236C14.0993 5.5641 13.9583 5.90418 13.7026 6.16001C13.4468 6.41584 13.1067 6.55671 12.7449 6.55671C12.3832 6.55671 12.0431 6.41575 11.7873 6.16001C11.5315 5.90418 11.3906 5.5641 11.3906 5.20236C11.3906 4.84062 11.5316 4.50053 11.7873 4.24471Z" />
</svg>
