<svg width="16" height="18" class="fill-current" viewBox="0 0 16 18" fill="none" xmlns="http://www.w3.org/2000/svg">
<path fill-rule="evenodd" clip-rule="evenodd" d="M14.5486 14.3481H2.30571C1.59412 14.3481 1.01198 14.9067 0.970578 15.608C0.971048 15.6511 0.971752 15.6834 0.972222 15.7043C0.972365 15.7122 0.971558 15.7197 0.970748 15.7273C0.970233 15.7322 0.969717 15.737 0.969444 15.7419C0.998322 16.4546 1.5859 17.0261 2.30571 17.0261H14.1915V15.7167C14.1915 15.4554 14.4038 15.2431 14.6651 15.2431C14.9264 15.2431 15.1388 15.4553 15.1388 15.7167V17.4997C15.1388 17.7613 14.9265 17.9734 14.6651 17.9734H2.23406C2.20921 17.9734 2.18573 17.9699 2.16179 17.9662C0.968113 17.8913 0.0191218 16.8991 0.0191218 15.6871C0.0191218 15.671 0.0202435 15.6553 0.0213649 15.6396C0.0221858 15.6281 0.0230066 15.6166 0.023387 15.6049C0.00894786 14.1985 0.023387 3.49979 0.0250305 2.33546C0.024483 2.33003 0.0237488 2.32462 0.0230131 2.3192C0.0215401 2.30836 0.0200609 2.29747 0.0200609 2.2862C0.0200609 1.02577 1.04559 0 2.30637 0H3.06327H14.5495H14.6652C14.9265 0 15.1389 0.212204 15.1388 0.473674V13.8613C15.1388 14.1228 14.9265 14.3349 14.6652 14.3349C14.6638 14.3349 14.6625 14.3348 14.6612 14.3347C14.66 14.3346 14.6587 14.3345 14.6573 14.3345C14.6224 14.3428 14.5861 14.3481 14.5486 14.3481ZM3.10237 1.81252C2.8409 1.81252 2.62869 2.02473 2.62869 2.2862V11.9078C2.62869 12.1691 2.8409 12.3815 3.10237 12.3815C3.36383 12.3815 3.57604 12.1691 3.57604 11.9078V2.2862C3.57604 2.02473 3.36383 1.81252 3.10237 1.81252Z" />
</svg>
