<svg width="18" height="18" viewBox="0 0 18 18" fill="none" xmlns="http://www.w3.org/2000/svg" class="fill-current">
<path fill-rule="evenodd" clip-rule="evenodd" d="M14.7064 0H3.26809C3.07231 0.00225412 2.88385 0.0747379 2.73702 0.204255C3.92621 0.622645 4.76873 1.68771 4.90213 2.94128C4.91462 3.04985 4.91462 3.15951 4.90213 3.26809V17.1574C4.90134 17.4766 5.0864 17.7669 5.376 17.9009C5.66629 18.0346 6.00786 17.9867 6.25021 17.7784L8.57872 15.7849L10.9072 17.7784C11.213 18.0399 11.6636 18.0399 11.9694 17.7784L14.2979 15.7849L16.6264 17.7784C16.7744 17.9049 16.9627 17.9745 17.1574 17.9745C17.2757 17.9736 17.3924 17.9486 17.5006 17.9009C17.7902 17.7669 17.9753 17.4766 17.9745 17.1574V3.26809C17.9745 1.46317 16.5113 0 14.7064 0ZM13.8894 11.4383H8.98723C8.53601 11.4383 8.17021 11.0725 8.17021 10.6213C8.17021 10.17 8.53601 9.80426 8.98723 9.80426H13.8894C14.3406 9.80426 14.7064 10.17 14.7064 10.6213C14.7064 11.0725 14.3406 11.4383 13.8894 11.4383ZM8.98723 8.17021H13.8894C14.3406 8.17021 14.7064 7.80442 14.7064 7.35319C14.7064 6.90196 14.3406 6.53617 13.8894 6.53617H8.98723C8.53601 6.53617 8.17021 6.90196 8.17021 7.35319C8.17021 7.80442 8.53601 8.17021 8.98723 8.17021ZM13.8894 4.90213H8.98723C8.53601 4.90213 8.17021 4.53633 8.17021 4.08511C8.17021 3.63388 8.53601 3.26809 8.98723 3.26809H13.8894C14.3406 3.26809 14.7064 3.63388 14.7064 4.08511C14.7064 4.53633 14.3406 4.90213 13.8894 4.90213ZM3.26809 9.80425V3.26809C3.35833 2.36563 2.6999 1.56088 1.79745 1.47064C0.89499 1.38039 0.0902457 2.03882 0 2.94128V3.26809V8.98723C0 9.43846 0.365793 9.80425 0.817021 9.80425H3.26809Z" />
</svg>
